<?xml version="1.0" standalone="no"?>
<!DOCTYPE svg PUBLIC "-//W3C//DTD SVG 20010904//EN"
 "http://www.w3.org/TR/2001/REC-SVG-20010904/DTD/svg10.dtd">
<svg version="1.0" xmlns="http://www.w3.org/2000/svg"
 width="1188.000000pt" height="1188.000000pt" viewBox="0 0 1188.000000 1188.000000"
 preserveAspectRatio="xMidYMid meet">
<metadata>
Created by potrace 1.14, written by Peter Selinger 2001-2017
</metadata>
<g transform="translate(0.000000,1188.000000) scale(0.100000,-0.100000)"
fill="#000000" stroke="none">
<path d="M3090 10764 l0 -785 -25 -33 c-66 -86 -115 -253 -115 -388 1 -193 97
-402 224 -489 l36 -24 0 -257 0 -258 480 0 480 0 0 -125 0 -125 -485 0 -485 0
0 -199 0 -199 -27 -7 c-113 -27 -253 -194 -294 -347 l-13 -48 -173 0 -173 0 0
-1325 0 -1325 -145 0 -145 0 0 -380 0 -380 485 0 485 0 0 -125 0 -125 390 0
390 0 0 -1360 0 -1360 -265 0 -265 0 0 -435 0 -435 2635 0 2635 0 -6 28 c-36
157 -64 241 -117 347 -103 208 -237 346 -411 425 -92 42 -172 59 -308 67
l-118 6 0 1359 0 1358 385 0 385 0 0 125 0 125 545 0 545 0 0 380 0 380 -95 0
-95 0 0 1325 0 1325 -238 0 -238 0 -13 48 c-32 121 -122 249 -220 311 -27 18
-81 39 -120 49 l-71 17 0 188 0 187 -380 0 c-246 0 -380 4 -381 10 -3 34 -4
217 -1 228 3 9 89 12 383 12 l379 0 0 1035 0 1035 -350 0 -350 0 0 180 0 180
-1870 0 -1870 0 0 -180 0 -180 -375 0 -375 0 0 475 0 475 -125 0 -125 0 0
-786z m3240 -3794 l0 -80 -305 0 -305 0 0 80 0 80 305 0 305 0 0 -80z m1120 0
l0 -80 -300 0 -300 0 0 80 0 80 300 0 300 0 0 -80z m1150 -1170 l0 -970 -35 0
-35 0 0 964 0 965 33 4 c17 2 33 5 35 5 1 1 2 -434 2 -968z m-2640 820 l0
-110 -120 0 -120 0 0 110 0 110 120 0 120 0 0 -110z m370 0 l0 -110 -120 0
-120 0 0 110 0 110 120 0 120 0 0 -110z m1120 25 l0 -85 -300 0 -300 0 0 85 0
85 300 0 300 0 0 -85z m-1490 -385 l0 -110 -120 0 -120 0 0 110 0 110 120 0
120 0 0 -110z m370 0 l0 -110 -120 0 -120 0 0 110 0 110 120 0 120 0 0 -110z
m-370 -360 l0 -110 -120 0 -120 0 0 110 0 110 120 0 120 0 0 -110z m370 0 l0
-110 -120 0 -120 0 0 110 0 110 120 0 120 0 0 -110z m-370 -360 l0 -110 -120
0 -120 0 0 110 0 110 120 0 120 0 0 -110z m370 0 l0 -110 -120 0 -120 0 0 110
0 110 120 0 120 0 0 -110z m-230 -3080 l0 -1360 -230 0 -230 0 0 1360 0 1360
230 0 230 0 0 -1360z"/>
</g>
</svg>
